<?xml version="1.0" encoding="utf-8"?>
<!-- Generator: Adobe Illustrator 24.0.2, SVG Export Plug-In . SVG Version: 6.00 Build 0)  -->
<svg version="1.1" id="Layer_1" xmlns="http://www.w3.org/2000/svg" xmlns:xlink="http://www.w3.org/1999/xlink" x="0px" y="0px"
	 viewBox="0 0 144 216" style="enable-background:new 0 0 144 216;" xml:space="preserve">
<style type="text/css">
	.st0{fill-rule:evenodd;clip-rule:evenodd;fill:#0E1214;}
</style>
<path class="st0" d="M63.69,146.6l-2.88,6.73h5.88L63.69,146.6z M59.33,156.68l-1.5,3.35h-3.9l7.46-16.84h4.56l7.52,16.84h-3.9
	l-1.52-3.35H59.33z M79.39,160.03h-0.11h-3.19V143.2h0.24h4.34l7.21,10.13V143.2h3.27v16.84h-2.61l-9.15-12.7V160.03z
	 M114.66,160.03V143.2h3.3v13.49h9.15v3.35H114.66z M97.09,160.03V143.2h11.77v3.4h-8.49v3.36h7.85v3.36h-7.85v3.36h9.69v3.35H97.09
	z M36.27,143.2h3.24v6.05h8.52v-6.05h3.27v16.84h-3.27v-7.4h-8.52v7.4h-3.24V143.2z M32.78,155.72c-0.01,0.03-0.04,0.08-0.05,0.12
	c-1.42,2.69-4.22,4.52-7.41,4.52c-4.63,0-8.43-3.88-8.43-8.66c0-4.76,3.8-8.66,8.43-8.66c3.21,0,6.01,1.87,7.42,4.6
	c0.04,0.05,0.05,0.08,0.09,0.16c0.01,0.01-2.69,1.96-2.72,1.93c-0.01-0.05-0.03-0.09-0.05-0.12c-0.78-1.94-2.62-3.23-4.75-3.19
	c-2.83,0.03-5.17,2.38-5.17,5.29c0,2.94,2.33,5.31,5.17,5.31c2.06,0,3.85-1.26,4.67-3.06c0.04-0.07,0.05-0.12,0.08-0.17
	L32.78,155.72z M72,131.85c-5.74,3.32-12.62,5.3-19.94,5.3c-14.98,0-28.1-8.17-35.2-20.28c0-0.06-0.05-0.06-0.05-0.11
	c0-0.06-0.06-0.06-0.06-0.11l5.75-2.99l5.74-2.93c0.06,0.06,0.11,0.11,0.17,0.23c4.9,7.94,13.69,13.24,23.65,13.24
	c3.21,0,6.31-0.56,9.07-1.46c-6.14-7.04-9.86-16.28-9.86-26.36c0-10.03,3.66-19.26,9.74-26.36c-2.76-0.96-5.8-1.47-8.96-1.47
	c-9.85,0-18.98,5.29-23.99,13.8c-0.06,0.06-0.06,0.11-0.06,0.17l-11.55-5.97c0.06-0.11,0.12-0.22,0.17-0.28
	c7.04-12.34,20.33-20.62,35.42-20.62c7.33,0,14.2,1.97,19.94,5.35c5.75-3.38,12.62-5.35,19.94-5.35c15.1,0,28.39,8.28,35.43,20.62
	c0.06,0.06,0.11,0.17,0.17,0.28l-11.55,5.97c0-0.06,0-0.11-0.06-0.17c-5.01-8.5-14.13-13.8-23.99-13.8c-3.15,0-6.2,0.51-8.96,1.47
	c6.08,7.1,9.75,16.33,9.75,26.36c0,10.08-3.72,19.32-9.86,26.36c2.76,0.9,5.85,1.46,9.07,1.46c9.97,0,18.76-5.29,23.66-13.24
	c0.06-0.11,0.12-0.17,0.17-0.23l5.75,2.93l5.74,2.99c0,0.05-0.05,0.05-0.05,0.11c0,0.05-0.06,0.05-0.06,0.11
	c-7.1,12.11-20.22,20.28-35.2,20.28C84.62,137.14,77.74,135.17,72,131.85z M72,115.68c-4.73-5.01-7.77-11.83-7.77-19.32
	c0-7.38,2.87-14.08,7.77-19.09c4.9,5.01,7.78,11.72,7.78,19.09C79.78,103.86,76.73,110.67,72,115.68z"/>
</svg>
